<svg xmlns="http://www.w3.org/2000/svg" viewBox="0 0 360 340"><defs><radialGradient id="glow"><stop stop-color="#ff3559" stop-opacity=".72"/><stop offset="1" stop-color="#ff3559" stop-opacity="0"/></radialGradient><linearGradient id="z" x1="0" y1="0" x2="1" y2="1"><stop stop-color="#59444a"/><stop offset=".42" stop-color="#2c2025"/><stop offset="1" stop-color="#100b0d"/></linearGradient><filter id="s" x="-40%" y="-40%" width="190%" height="200%"><feDropShadow dx="0" dy="17" stdDeviation="12" flood-color="#000" flood-opacity=".7"/></filter></defs><circle cx="180" cy="155" r="150" fill="url(#glow)"/><g filter="url(#s)"><rect x="30" y="28" width="300" height="255" rx="25" fill="url(#z)" stroke="#76535d" stroke-width="4"/><rect x="58" y="58" width="190" height="126" rx="13" fill="#08090a" stroke="#57343e" stroke-width="4"/><rect x="74" y="74" width="158" height="94" rx="8" fill="#101517"/><path d="M90 98h128M90 123h128M90 148h83" stroke="#b32442" stroke-width="5" opacity=".72"/><rect x="265" y="59" width="43" height="156" rx="9" fill="#0c0d0f" stroke="#62404a" stroke-width="3"/><rect x="275" y="76" width="23" height="41" rx="4" fill="#ff4968"/><circle cx="286.5" cy="143" r="9" fill="#ffbe54"/><circle cx="286.5" cy="177" r="9" fill="#ff3559"/><path d="M60 208h240" stroke="#991e36" stroke-width="10"/><path d="M72 202l22 12m24-12 22 12m24-12 22 12m24-12 22 12m24-12 22 12" stroke="#181114" stroke-width="6"/><text x="153" y="153" fill="#ff4f6d" font-size="78" font-family="system-ui,sans-serif" font-weight="900">0</text><path d="M82 282c-8 25-31 28-42 43M150 283c0 28-16 35-21 52M239 283c7 27 28 28 41 48" fill="none" stroke="#1b1517" stroke-width="10" stroke-linecap="round"/><circle cx="40" cy="325" r="7" fill="#6f2838"/><circle cx="129" cy="335" r="7" fill="#6f2838"/><circle cx="280" cy="331" r="7" fill="#6f2838"/></g></svg>