<svg xmlns="http://www.w3.org/2000/svg" viewBox="0 0 360 300">
  <defs>
    <linearGradient id="body" x1="0" y1="0" x2="1" y2="1">
      <stop offset="0" stop-color="#8aa1a8"/>
      <stop offset=".45" stop-color="#3f5b63"/>
      <stop offset="1" stop-color="#182a30"/>
    </linearGradient>
    <linearGradient id="glass" x1="0" y1="0" x2="1" y2="1">
      <stop stop-color="#194955"/>
      <stop offset="1" stop-color="#07171d"/>
    </linearGradient>
    <filter id="shadow" x="-30%" y="-30%" width="160%" height="180%">
      <feDropShadow dx="0" dy="14" stdDeviation="10" flood-color="#000" flood-opacity=".55"/>
    </filter>
  </defs>
  <g filter="url(#shadow)">
    <rect x="20" y="25" width="315" height="230" rx="24" fill="url(#body)" stroke="#b1c6ca" stroke-width="4"/>
    <rect x="45" y="53" width="210" height="112" rx="13" fill="url(#glass)" stroke="#587b83" stroke-width="4"/>
    <path d="M64 73h172v72H64z" fill="#0a1519"/>
    <path d="M76 83h148v5H76zm0 45h148v5H76z" fill="#5bb5c5" opacity=".28"/>
    <rect x="267" y="54" width="45" height="145" rx="8" fill="#142329" stroke="#778d92" stroke-width="3"/>
    <rect x="277" y="69" width="25" height="34" rx="4" fill="#78d9df"/>
    <circle cx="289.5" cy="124" r="9" fill="#ffd166"/>
    <circle cx="289.5" cy="153" r="9" fill="#e85555"/>
    <rect x="55" y="187" width="185" height="36" rx="8" fill="#273a40" stroke="#96aaae" stroke-width="3"/>
    <path d="M68 205h158" stroke="#0b1418" stroke-width="10" stroke-linecap="round"/>
    <path d="M20 230h315" stroke="#d6a94c" stroke-width="8"/>
    <path d="M31 226l18 8m18-8 18 8m18-8 18 8m18-8 18 8m18-8 18 8m18-8 18 8m18-8 18 8m18-8 18 8" stroke="#24201a" stroke-width="5"/>
    <rect x="74" y="247" width="32" height="20" rx="5" fill="#111a1e"/>
    <rect x="250" y="247" width="32" height="20" rx="5" fill="#111a1e"/>
  </g>
</svg>
