<svg xmlns="http://www.w3.org/2000/svg" viewBox="0 0 460 280">
  <defs>
    <linearGradient id="b" x1="0" y1="0" x2="1" y2="1">
      <stop stop-color="#78888b"/><stop offset=".55" stop-color="#3c494c"/><stop offset="1" stop-color="#1b2528"/>
    </linearGradient>
    <linearGradient id="bed" x1="0" y1="0" x2="0" y2="1">
      <stop stop-color="#182326"/><stop offset="1" stop-color="#060b0d"/>
    </linearGradient>
    <filter id="s" x="-20%" y="-30%" width="150%" height="180%">
      <feDropShadow dx="0" dy="15" stdDeviation="10" flood-color="#000" flood-opacity=".55"/>
    </filter>
  </defs>
  <g filter="url(#s)">
    <rect x="20" y="35" width="420" height="196" rx="24" fill="url(#b)" stroke="#a7b5b7" stroke-width="4"/>
    <rect x="52" y="65" width="305" height="125" rx="12" fill="url(#bed)" stroke="#5f7377" stroke-width="4"/>
    <g stroke="#314146" stroke-width="5">
      <path d="M75 76v103m30-103v103m30-103v103m30-103v103m30-103v103m30-103v103m30-103v103m30-103v103m30-103v103"/>
      <path d="M63 98h282M63 126h282M63 154h282"/>
    </g>
    <rect x="80" y="55" width="242" height="28" rx="8" fill="#8e9da0" stroke="#d0dadb" stroke-width="3"/>
    <rect x="186" y="48" width="46" height="48" rx="9" fill="#1b292d" stroke="#e0bd65" stroke-width="4"/>
    <circle cx="209" cy="72" r="9" fill="#ffd166"/>
    <rect x="374" y="60" width="46" height="139" rx="9" fill="#152125" stroke="#788b8e" stroke-width="3"/>
    <rect x="384" y="74" width="26" height="38" rx="4" fill="#7ce1d7"/>
    <circle cx="397" cy="135" r="9" fill="#ffcb5e"/>
    <circle cx="397" cy="164" r="9" fill="#e85858"/>
    <path d="M20 210h420" stroke="#d4a744" stroke-width="9"/>
    <path d="M30 205l20 10m22-10 20 10m22-10 20 10m22-10 20 10m22-10 20 10m22-10 20 10m22-10 20 10m22-10 20 10m22-10 20 10m22-10 20 10" stroke="#272218" stroke-width="5"/>
    <rect x="76" y="229" width="40" height="22" rx="5" fill="#111719"/>
    <rect x="344" y="229" width="40" height="22" rx="5" fill="#111719"/>
  </g>
</svg>
