<svg xmlns="http://www.w3.org/2000/svg" viewBox="0 0 380 300"><defs><linearGradient id="p" x1="0" y1="0" x2="1" y2="1"><stop stop-color="#8c8b79"/><stop offset=".5" stop-color="#525343"/><stop offset="1" stop-color="#24271f"/></linearGradient><filter id="s" x="-30%" y="-30%" width="170%" height="180%"><feDropShadow dx="0" dy="15" stdDeviation="10" flood-color="#000" flood-opacity=".58"/></filter></defs><g filter="url(#s)"><rect x="35" y="30" width="310" height="225" rx="20" fill="url(#p)" stroke="#c2bea1" stroke-width="4"/><rect x="64" y="55" width="215" height="62" rx="10" fill="#252b25" stroke="#8f927a" stroke-width="4"/><rect x="81" y="72" width="180" height="24" rx="7" fill="#090d0b"/><path d="M88 84h166" stroke="#d6b54f" stroke-width="8"/><rect x="75" y="130" width="225" height="30" rx="7" fill="#74745e" stroke="#d0ccb0" stroke-width="3"/><rect x="92" y="158" width="190" height="36" rx="5" fill="#151915"/><path d="M105 174h165" stroke="#f0c358" stroke-width="8"/><path d="M112 170l18 9m22-9 18 9m22-9 18 9m22-9 18 9" stroke="#242116" stroke-width="5"/><rect x="298" y="57" width="29" height="125" rx="7" fill="#1b211c" stroke="#8d907a" stroke-width="3"/><rect x="305" y="69" width="15" height="25" rx="3" fill="#8fe8c8"/><circle cx="312.5" cy="116" r="7" fill="#ffd166"/><circle cx="312.5" cy="143" r="7" fill="#e75353"/><rect x="61" y="207" width="258" height="22" rx="7" fill="#151915"/><rect x="83" y="248" width="36" height="18" rx="5" fill="#111512"/><rect x="261" y="248" width="36" height="18" rx="5" fill="#111512"/></g></svg>