<svg xmlns="http://www.w3.org/2000/svg">
  <symbol id="bolt" viewBox="0 0 24 24"><path fill="currentColor" d="M13.4 1 4.8 13h6l-1 10L19.3 9h-6.1z"/></symbol>
  <symbol id="crown" viewBox="0 0 24 24"><path d="m3 7 4.5 3L12 3l4.5 7L21 7l-2 11H5L3 7Z" fill="none" stroke="currentColor" stroke-width="1.7" stroke-linejoin="round"/><path d="M5 21h14M8 14h8" stroke="currentColor" stroke-width="1.7" stroke-linecap="round"/></symbol>
  <symbol id="crystal" viewBox="0 0 24 24"><path d="m12 1 7 6-2 11-5 5-5-5L5 7l7-6Z" fill="none" stroke="currentColor" stroke-width="1.5"/><path d="m5 7 7 3 7-3m-7-6v21M7 18l5-8 5 8" fill="none" stroke="currentColor" stroke-width="1.2"/></symbol>
  <symbol id="sigil" viewBox="0 0 24 24"><path d="m12 1 3 6 6 1-4 5 1 7-6-3-6 3 1-7-4-5 6-1 3-6Z" fill="none" stroke="currentColor" stroke-width="1.2"/><circle cx="12" cy="12" r="4" fill="none" stroke="currentColor"/><path d="M12 5v14M5 12h14" stroke="currentColor" stroke-width=".8"/></symbol>
  <symbol id="phase" viewBox="0 0 24 24"><circle cx="12" cy="12" r="4" fill="none" stroke="currentColor" stroke-width="1.5"/><path d="M2 12s4-7 10-7 10 7 10 7-4 7-10 7S2 12 2 12Z" fill="none" stroke="currentColor" stroke-width="1.4"/><path d="M12 1v3m0 16v3M1 12h3m16 0h3" stroke="currentColor" stroke-width="1.2"/></symbol>
  <symbol id="shield" viewBox="0 0 24 24"><path d="M12 2 21 6v6c0 5.5-3.8 9.1-9 11-5.2-1.9-9-5.5-9-11V6l9-4Z" fill="none" stroke="currentColor" stroke-width="1.7"/><path d="M12 5v14c3.4-1.6 5.8-4 5.8-7.4V8L12 5Z" fill="currentColor" opacity=".35"/></symbol>
  <symbol id="crossed-swords" viewBox="0 0 24 24"><path d="m4 3 7 7-3 3-7-7 3-3Zm16 0-7 7 3 3 7-7-3-3ZM7 14l-4 4 3 3 4-4m7-3 4 4-3 3-4-4" fill="none" stroke="currentColor" stroke-width="1.7" stroke-linecap="round" stroke-linejoin="round"/></symbol>
  <symbol id="clock" viewBox="0 0 24 24"><circle cx="12" cy="13" r="9" fill="none" stroke="currentColor" stroke-width="1.7"/><path d="M12 8v5l3 2M9 2h6" stroke="currentColor" stroke-width="1.7" stroke-linecap="round"/></symbol>
  <symbol id="skull" viewBox="0 0 24 24"><path d="M5 11a7 7 0 1 1 14 0v5l-3 2v3H8v-3l-3-2v-5Z" fill="none" stroke="currentColor" stroke-width="1.5"/><circle cx="9" cy="12" r="1.6" fill="currentColor"/><circle cx="15" cy="12" r="1.6" fill="currentColor"/><path d="m12 14-1 2h2l-1-2Zm-2 4v3m4-3v3" stroke="currentColor" stroke-width="1.2"/></symbol>
  <symbol id="heal" viewBox="0 0 24 24"><path d="M9 2h6v7h7v6h-7v7H9v-7H2V9h7V2Z" fill="currentColor"/></symbol>
  <symbol id="vortex" viewBox="0 0 24 24"><path d="M12 2c6 0 10 5 9 10-1 5-6 8-11 6-4-2-5-7-2-10 3-3 8-1 8 3 0 3-4 5-6 2-1-2 1-4 3-3" fill="none" stroke="currentColor" stroke-width="1.5" stroke-linecap="round"/><circle cx="12" cy="12" r="2" fill="currentColor"/></symbol>
  <symbol id="helmet" viewBox="0 0 24 24"><path d="M4 9c0-5 3-8 8-8s8 3 8 8v11l-5-3-3 6-3-6-5 3V9Z" fill="none" stroke="currentColor" stroke-width="1.5"/><path d="M5 9h5l2 4 2-4h5M12 13v10" fill="none" stroke="currentColor" stroke-width="1.4"/></symbol>
  <symbol id="bag" viewBox="0 0 24 24"><path d="M6 8h12l3 4-2 10H5L3 12l3-4Z" fill="none" stroke="currentColor" stroke-width="1.5"/><path d="M8 8V5c0-2 8-2 8 0v3m-4 1v12M4 12h16" fill="none" stroke="currentColor" stroke-width="1.3"/></symbol>
  <symbol id="shop" viewBox="0 0 24 24"><path d="M3 9h18v13H3V9Zm2-7h14l3 7H2l3-7Z" fill="none" stroke="currentColor" stroke-width="1.5"/><path d="M9 13h6v9H9zM2 9c0 3 5 3 5 0 0 3 5 3 5 0 0 3 5 3 5 0 0 3 5 3 5 0" fill="none" stroke="currentColor" stroke-width="1.3"/></symbol>
  <symbol id="trophy" viewBox="0 0 24 24"><path d="M7 2h10v6c0 5-2 7-5 7s-5-2-5-7V2Zm5 13v5m-4 2h8M7 5H2v3c0 3 2 5 6 5m9-8h5v3c0 3-2 5-6 5" fill="none" stroke="currentColor" stroke-width="1.6" stroke-linecap="round" stroke-linejoin="round"/></symbol>
  <symbol id="close" viewBox="0 0 24 24"><path d="m5 5 14 14M19 5 5 19" stroke="currentColor" stroke-width="2" stroke-linecap="round"/></symbol>
</svg>
